<svg width="385" height="395" viewBox="0 0 385 395" fill="none" xmlns="http://www.w3.org/2000/svg">
<g clip-path="url(#clip0_532_72)">
<path d="M128.201 125.344H121.771C118.442 125.344 115.742 128.113 115.742 131.529C115.742 134.945 118.441 137.714 121.771 137.714H128.201C131.529 137.714 134.229 134.945 134.229 131.529C134.229 128.113 131.529 125.344 128.201 125.344Z" fill="black"/>
<path d="M198.931 125.344H192.501C189.172 125.344 186.473 128.113 186.473 131.529C186.473 134.945 189.171 137.714 192.501 137.714H198.931C202.26 137.714 204.959 134.945 204.959 131.529C204.959 128.113 202.261 125.344 198.931 125.344Z" fill="black"/>
<path d="M249.807 112.856C247.033 64.6987 207.973 26.3906 160.351 26.3906H70.3304C66.4736 26.3906 63.544 30.2303 64.4825 34.0754L69.0401 52.7792H51.0406C46.8304 52.7792 43.8632 57.3086 45.4641 61.3126C45.6581 61.7987 55.4771 86.3373 66.8113 114.248C57.7202 118.26 51.4429 127.578 51.4429 138.129C51.4429 152.452 62.8011 164.104 76.7611 164.104C80.1036 164.104 83.3979 163.418 86.45 162.121C90.6775 172.27 94.3786 180.991 96.9969 186.876C98.1399 189.445 100.93 190.921 103.633 190.377C106.177 189.864 108.16 187.674 108.463 185.029C123.108 196.995 141.451 203.686 160.352 203.686C179.255 203.686 197.601 196.994 212.247 185.025C212.495 187.209 213.854 189.12 215.859 189.996C218.082 190.968 220.654 190.485 222.397 188.769C229.262 182.009 235.129 173.375 239.666 163.729C241.073 163.975 242.501 164.103 243.943 164.103C257.904 164.103 269.261 152.45 269.261 138.127C269.26 126.064 261.048 115.603 249.807 112.856ZM76.7604 151.734C69.4476 151.734 63.4982 145.63 63.4982 138.128C63.4982 132.634 66.7413 127.778 71.4523 125.657C74.9143 134.149 78.4117 142.692 81.733 150.74C80.1735 151.388 78.5004 151.734 76.7604 151.734ZM212.194 168.301C198.791 182.931 179.921 191.317 160.351 191.317C140.783 191.317 121.912 182.931 108.509 168.301V104.73H212.193V168.301H212.194ZM224.25 166.887V98.5452C224.25 95.1299 221.551 92.3603 218.222 92.3603H102.481C99.152 92.3603 96.4525 95.1291 96.4525 98.5452V154.658C83.8859 124.415 67.1466 82.8502 60.0384 65.1477H76.7604C80.6171 65.1477 83.5467 61.308 82.6083 57.4629L78.0507 38.7591H160.35C203.119 38.7591 237.913 74.4572 237.913 118.336C237.914 135.418 232.788 153.075 224.25 166.887ZM244.45 151.708C247.207 143.379 249.013 134.619 249.68 125.874C254.152 128.093 257.204 132.808 257.204 138.129C257.204 145.455 251.526 151.431 244.45 151.708Z" fill="black"/>
<path d="M314.67 0C301.571 0 288.981 4.03795 278.259 11.6787C275.525 13.6275 274.847 17.4811 276.746 20.2862C278.644 23.0905 282.402 23.7864 285.135 21.8384C293.829 15.6434 304.042 12.37 314.669 12.37C343.255 12.37 366.512 36.2304 366.512 65.5592C366.512 94.8879 343.255 118.748 314.669 118.748C286.083 118.748 262.826 94.8879 262.826 65.5592C262.826 58.5379 264.136 51.7195 266.721 45.2915C267.992 42.1339 266.525 38.5187 263.447 37.2156C260.37 35.9126 256.846 37.417 255.576 40.5747C252.387 48.5063 250.77 56.9124 250.77 65.5592C250.77 101.708 279.435 131.118 314.668 131.118C349.902 131.118 378.567 101.708 378.567 65.5592C378.567 29.4105 349.903 0 314.67 0Z" fill="black"/>
<path d="M314.671 19.7891C290.074 19.7891 270.062 40.3198 270.062 65.5566C270.062 90.7926 290.073 111.324 314.671 111.324C339.268 111.324 359.28 90.7934 359.28 65.5566C359.279 40.3206 339.268 19.7891 314.671 19.7891ZM314.671 98.9542C296.722 98.9542 282.119 83.9719 282.119 65.5566C282.119 47.1413 296.722 32.159 314.671 32.159C332.621 32.159 347.223 47.1413 347.223 65.5566C347.223 83.9719 332.62 98.9542 314.671 98.9542Z" fill="black"/>
<path d="M337.307 73.6092L320.701 62.2514V45.7709C320.701 42.3556 318.003 39.5859 314.673 39.5859C311.344 39.5859 308.645 42.3548 308.645 45.7709V65.5618C308.645 67.6302 309.651 69.5612 311.329 70.7076L330.619 83.9015C333.573 85.9221 337.692 84.8204 339.32 81.5917C340.714 78.8313 339.827 75.3327 337.307 73.6092Z" fill="black"/>
<path d="M378.972 329.578C382.3 329.578 385 326.809 385 323.393V270.066C385 266.651 382.301 263.881 378.972 263.881H330.344V256.872C330.344 246.186 321.871 237.493 311.456 237.493H285.735C275.32 237.493 266.847 246.186 266.847 256.872V263.881H262.829V237.081C262.829 219.12 248.586 204.508 231.08 204.508H89.6193C72.1131 204.508 57.8711 219.121 57.8711 237.081V264.181C25.4544 267.31 0 295.378 0 329.44C0 365.589 28.6652 394.999 63.8987 394.999C64.3454 394.999 141.06 394.999 141.06 394.999C144.389 394.999 147.088 392.23 147.088 388.814C147.088 385.399 144.389 382.629 141.06 382.629H101.187C117.287 370.714 127.797 351.318 127.797 329.44C127.797 295.377 102.343 267.309 69.9271 264.181V237.081C69.9271 225.94 78.7611 216.877 89.6193 216.877H130.548L141.324 244.515L128.643 355.105C128.346 357.694 129.662 360.194 131.934 361.36L157.654 374.554C159.337 375.416 161.364 375.416 163.046 374.554L188.767 361.36C191.039 360.195 192.355 357.694 192.058 355.105L179.377 244.515L190.152 216.877H231.081C241.939 216.877 250.773 225.94 250.773 237.081V263.881H218.221C214.892 263.881 212.193 266.65 212.193 270.066V382.629H172.943C169.614 382.629 166.915 385.398 166.915 388.814C166.915 392.229 169.614 394.999 172.943 394.999H378.973C382.302 394.999 385.001 392.23 385.001 388.814V355.828C385.001 352.413 382.303 349.643 378.973 349.643C375.644 349.643 372.945 352.412 372.945 355.828V382.629H224.248V301.779L276.492 325.985V342.634C276.492 346.05 279.191 348.819 282.521 348.819H314.671C318 348.819 320.7 346.051 320.7 342.634V326.257L372.944 302.77V323.394C372.944 326.809 375.643 329.578 378.972 329.578ZM115.741 329.44C115.741 358.768 92.485 382.63 63.8987 382.63C35.3125 382.63 12.0561 358.769 12.0561 329.44C12.0561 300.112 35.3125 276.251 63.8987 276.251C92.485 276.251 115.741 300.112 115.741 329.44ZM177.166 216.878L169.129 237.493H151.57L143.533 216.878H177.166ZM179.587 352.239L160.349 362.109L141.111 352.24L152.85 249.864H167.849L179.587 352.239ZM278.904 256.872C278.904 253.007 281.969 249.863 285.736 249.863H311.457C315.224 249.863 318.289 253.007 318.289 256.872V263.882H278.905V256.872H278.904ZM308.643 336.45H288.549V322.432H308.643V336.45ZM319.869 313.124C318.822 311.294 316.89 310.062 314.671 310.062H282.52C280.407 310.062 278.55 311.179 277.474 312.867L224.247 288.206V276.251H372.942V289.265L319.869 313.124Z" fill="black"/>
<path d="M63.8984 323.254C60.1311 323.254 57.0662 320.317 57.0662 316.451C57.0662 312.586 60.1311 309.649 63.8984 309.649H76.7583C80.0872 309.649 82.7867 306.88 82.7867 303.464C82.7867 300.047 80.088 297.279 76.7583 297.279H69.5245V289.857C69.5245 286.442 66.8258 283.672 63.4961 283.672C60.1672 283.672 57.4677 286.441 57.4677 289.857V297.884C50.2339 300.472 44.8086 307.722 44.8086 316.245C44.8086 326.931 53.3824 335.624 63.7977 335.624C67.565 335.624 70.6803 338.975 70.6803 342.84C70.6803 346.705 67.6665 350.056 63.8984 350.056H51.0385C47.7096 350.056 45.0101 352.825 45.0101 356.241C45.0101 359.657 47.7089 362.426 51.0385 362.426H57.4685V369.023C57.4685 372.438 60.1672 375.208 63.4969 375.208C66.8258 375.208 69.5253 372.439 69.5253 369.023V360.995C77.5629 358.408 82.5867 351.157 82.5867 342.634C82.586 331.948 74.3137 323.254 63.8984 323.254Z" fill="black"/>
</g>
<defs>
<clipPath id="clip0_532_72">
<rect width="385" height="395" fill="white"/>
</clipPath>
</defs>
</svg>
