<svg width="333" height="324" viewBox="0 0 333 324" fill="none" xmlns="http://www.w3.org/2000/svg">
<path d="M330.871 242.814L321.634 233.94C318.796 231.214 314.197 231.214 311.359 233.94C308.59 236.599 308.531 240.866 311.165 243.604L288.985 267.786V230.987C288.985 227.132 285.732 224.008 281.72 224.008H224.71L194.275 211.826C192.612 211.16 191.538 209.612 191.538 207.882V197.047L210.637 186.558C210.772 186.484 210.905 186.405 211.035 186.323C220.466 180.339 226.666 169.611 227.62 157.625C227.634 157.449 227.64 157.271 227.64 157.094V151.3C237.074 148.352 243.914 139.823 243.914 129.789C243.914 126.859 243.316 124.065 242.256 121.494C269.4 115.489 282.649 107.098 282.649 95.9579C282.649 84.028 266.975 78.063 261.824 76.1032C256.075 73.9149 249.048 71.921 241.011 70.1709C236.255 51.4164 225.921 34.4513 211.568 22.0184C195.687 8.26293 175.58 0.6875 154.952 0.6875C134.322 0.6875 114.213 8.26494 98.3311 22.0238C83.9757 34.46 73.6426 51.4297 68.8895 70.189C60.8461 71.9437 53.8179 73.943 48.0725 76.1359C42.9425 78.0944 27.3334 84.052 27.3334 95.9585C27.3334 107.098 40.5819 115.489 67.7262 121.494C66.6652 124.066 66.0686 126.861 66.0686 129.79C66.0686 139.824 72.907 148.353 82.3417 151.3V157.094C82.3417 157.271 82.3487 157.45 82.3626 157.626C83.3131 169.563 89.5556 180.292 99.064 186.323C99.1912 186.404 99.3212 186.482 99.4533 186.554L118.444 197.016V207.883C118.444 209.613 117.37 211.162 115.708 211.826L68.9514 230.542C56.7146 235.44 48.1685 248.362 48.1685 261.965V309.156H7.87791C3.86595 309.156 0.613281 312.281 0.613281 316.135C0.613281 319.99 3.86665 323.115 7.87791 323.115H302.135C306.147 323.115 309.4 319.99 309.4 316.135C309.4 312.28 306.147 309.156 302.135 309.156H288.984V288.901L321.52 253.428C322.777 254.291 324.253 254.73 325.733 254.73C327.593 254.73 329.452 254.049 330.87 252.686C333.708 249.959 333.708 245.539 330.871 242.814ZM233.606 82.8958C259.339 87.961 267.204 94.0816 268.079 95.9579C267.138 98.046 258.683 104.388 230.831 109.539C229.806 109.048 228.743 108.621 227.64 108.277V93.8177C227.64 89.7244 227.199 85.7406 226.293 81.5819C228.749 81.9927 233.56 82.8877 233.606 82.8958ZM154.952 14.644C186.471 14.644 214.539 36.2181 225.059 67.2252C224.928 67.2052 218.688 66.3001 217.435 66.1344C217.411 66.1311 217.387 66.1317 217.363 66.1284C198.573 63.6636 177.075 62.3403 154.99 62.3403C132.807 62.3403 111.219 63.6756 92.3702 66.1625C92.3375 66.1665 92.3048 66.1658 92.2722 66.1711C89.8274 66.4951 84.9262 67.2252 84.8393 67.2392C95.3573 36.2234 123.428 14.644 154.952 14.644ZM41.903 95.9585C42.7763 94.0882 50.6174 87.9797 76.2716 82.9178C76.3266 82.9078 81.1145 82.0154 83.5467 81.6072C82.7429 85.6324 82.3417 89.6462 82.3417 93.819V108.278C81.2396 108.623 80.1765 109.05 79.1516 109.54C51.2988 104.388 42.8438 98.046 41.903 95.9585ZM106.897 174.562C101.35 170.955 97.5308 164.192 96.871 156.811V145.421C96.871 141.566 93.6176 138.441 89.6056 138.441C84.6383 138.441 80.5979 134.558 80.5979 129.788C80.5979 125.017 84.6397 121.134 89.6056 121.134C93.6176 121.134 96.871 118.01 96.871 114.155V93.819C96.871 88.8373 97.5537 84.2704 99.0257 79.4049C116.072 77.3817 135.259 76.2996 154.991 76.2996C174.629 76.2996 193.729 77.3723 210.717 79.3776C212.371 84.6151 213.111 89.0885 213.111 93.819V114.155C213.111 118.01 216.364 121.134 220.376 121.134C225.343 121.134 229.384 125.017 229.384 129.788C229.384 134.559 225.342 138.441 220.376 138.441C216.364 138.441 213.111 141.566 213.111 145.421V156.812C212.442 164.345 208.756 170.949 203.206 174.56L164.086 196.044C163.951 196.118 163.818 196.197 163.688 196.279C158.243 199.734 151.739 199.736 146.292 196.279C146.165 196.199 146.035 196.122 145.903 196.048L106.897 174.562ZM132.975 205.018L138.489 208.055C143.59 211.239 149.29 212.83 154.991 212.83C160.69 212.83 166.388 211.239 171.487 208.057L177.008 205.025V232.952C177.008 244.561 167.115 254.006 154.956 254.006C142.835 254.006 132.975 244.561 132.975 232.952V205.018ZM203.989 287.245C198.818 284.702 195.265 279.524 195.265 273.561C195.265 267.598 198.817 262.421 203.989 259.878V287.245ZM203.989 230.987V245.083C190.66 248.215 180.735 259.791 180.735 273.561C180.735 287.33 190.66 298.906 203.989 302.038V309.155H162.22V300.553C162.22 296.699 158.967 293.574 154.955 293.574C150.944 293.574 147.691 296.699 147.691 300.553V309.155H62.6991V261.964C62.6991 254.097 67.7895 246.127 74.5403 243.425L118.445 225.852V232.952C118.445 252.258 134.824 267.965 154.956 267.965C175.128 267.965 191.538 252.258 191.538 232.952V225.852L203.997 230.839C203.997 230.889 203.989 230.938 203.989 230.987ZM274.455 309.155H218.521V237.967H274.455V309.155Z" fill="black"/>
</svg>
